<svg width="434" height="49" viewBox="0 0 434 49" fill="none" xmlns="http://www.w3.org/2000/svg">
<path d="M13.6 47.576C11.616 47.576 9.776 47.544 8.08 47.48C6.384 47.416 4.064 47.272 1.12 47.048V13.976H17.632C19.968 13.976 22.064 14.312 23.92 14.984C25.808 15.624 27.28 16.552 28.336 17.768C29.392 18.984 29.92 20.392 29.92 21.992C29.92 23.976 29.488 25.544 28.624 26.696C27.76 27.816 26.448 28.6 24.688 29.048C29.168 29.752 31.408 32.392 31.408 36.968C31.408 40.136 29.952 42.696 27.04 44.648C24.16 46.6 19.68 47.576 13.6 47.576ZM15.616 27.032C16.864 27.032 17.888 26.728 18.688 26.12C19.52 25.512 19.936 24.728 19.936 23.768C19.936 21.496 18.528 20.36 15.712 20.36H11.824V27.032H15.616ZM15.424 40.04C17.184 40.04 18.528 39.72 19.456 39.08C20.416 38.408 20.896 37.48 20.896 36.296C20.896 35.016 20.464 34.04 19.6 33.368C18.736 32.664 17.504 32.312 15.904 32.312H11.776V39.896C13.216 39.992 14.432 40.04 15.424 40.04ZM59.7138 13.976C59.0738 12.696 58.7538 11.368 58.7538 9.992C58.7538 8.36 59.1058 6.92 59.8098 5.672C60.5458 4.392 61.5378 3.416 62.7858 2.744C64.0658 2.04 65.4898 1.688 67.0578 1.688C68.7538 1.688 70.2258 2.056 71.4738 2.792C72.7218 3.528 73.6658 4.536 74.3058 5.816C74.9778 7.064 75.3138 8.456 75.3138 9.992C75.3138 11.496 74.9778 12.84 74.3058 14.024L83.8578 47H72.5778L71.3298 40.664H62.7858L61.3938 47H50.5938L59.7138 13.976ZM67.0578 13.112C67.9218 13.112 68.5938 12.84 69.0738 12.296C69.5858 11.72 69.8418 10.952 69.8418 9.992C69.8418 9 69.5698 8.216 69.0258 7.64C68.5138 7.064 67.8258 6.776 66.9618 6.776C66.0978 6.776 65.4098 7.064 64.8978 7.64C64.3858 8.216 64.1298 9 64.1298 9.992C64.1298 10.92 64.4018 11.672 64.9458 12.248C65.4898 12.824 66.1938 13.112 67.0578 13.112ZM70.1778 34.76L67.0578 20.312L63.7938 34.76H70.1778ZM107.542 21.272H100.678V13.976H125.59V21.272H118.726V47H107.542V21.272Z" fill="white"/>
<path d="M158.093 47.768C153.581 47.768 149.773 46.936 146.669 45.272L149.069 37.832C152.365 39.016 155.309 39.608 157.901 39.608C159.309 39.608 160.333 39.448 160.973 39.128C161.645 38.776 161.981 38.264 161.981 37.592C161.981 37.144 161.805 36.76 161.453 36.44C161.101 36.088 160.397 35.704 159.341 35.288C158.285 34.872 156.701 34.36 154.589 33.752C151.997 32.984 149.981 31.736 148.541 30.008C147.101 28.248 146.381 26.232 146.381 23.96C146.381 20.44 147.533 17.784 149.837 15.992C152.173 14.168 155.309 13.256 159.245 13.256C161.293 13.256 163.309 13.48 165.293 13.928C167.277 14.344 169.037 14.968 170.573 15.8L167.981 23.048C166.189 22.44 164.621 22.008 163.277 21.752C161.965 21.464 160.685 21.32 159.437 21.32C157.325 21.32 156.269 21.896 156.269 23.048C156.269 23.624 156.605 24.12 157.277 24.536C157.981 24.92 159.405 25.416 161.549 26.024C164.909 26.92 167.453 28.296 169.181 30.152C170.909 31.976 171.773 34.168 171.773 36.728C171.773 40.28 170.621 43.016 168.317 44.936C166.013 46.824 162.605 47.768 158.093 47.768ZM194.035 13.976H204.835V27.128H215.059V13.976H225.907V47H215.059V34.04H204.835V47H194.035V13.976ZM265.936 47.768C262.48 47.768 259.408 47.032 256.72 45.56C254.064 44.088 251.984 42.056 250.48 39.464C249.008 36.84 248.272 33.864 248.272 30.536C248.272 27.176 249.008 24.184 250.48 21.56C251.984 18.936 254.064 16.904 256.72 15.464C259.408 13.992 262.48 13.256 265.936 13.256C269.392 13.256 272.448 13.992 275.104 15.464C277.792 16.904 279.872 18.936 281.344 21.56C282.848 24.152 283.6 27.144 283.6 30.536C283.6 33.864 282.848 36.84 281.344 39.464C279.872 42.056 277.792 44.088 275.104 45.56C272.416 47.032 269.36 47.768 265.936 47.768ZM265.936 39.032C267.952 39.032 269.6 38.248 270.88 36.68C272.192 35.112 272.848 33.048 272.848 30.488C272.848 28.792 272.544 27.288 271.936 25.976C271.36 24.632 270.544 23.592 269.488 22.856C268.432 22.088 267.232 21.704 265.888 21.704C264.576 21.704 263.392 22.088 262.336 22.856C261.28 23.592 260.464 24.632 259.888 25.976C259.312 27.288 259.024 28.792 259.024 30.488C259.024 33.048 259.664 35.112 260.944 36.68C262.224 38.248 263.888 39.032 265.936 39.032ZM305.961 13.976H317.865C322.793 13.976 326.601 14.936 329.289 16.856C332.009 18.776 333.369 21.464 333.369 24.92C333.369 27.096 332.697 29 331.353 30.632C330.041 32.264 328.233 33.528 325.929 34.424C323.657 35.288 321.129 35.72 318.345 35.72H316.329V47H305.961V13.976ZM318.393 29.048C320.089 29.048 321.401 28.696 322.329 27.992C323.257 27.288 323.721 26.264 323.721 24.92C323.721 23.576 323.257 22.568 322.329 21.896C321.433 21.224 320.121 20.888 318.393 20.888H316.329V28.952C316.969 29.016 317.657 29.048 318.393 29.048ZM354.893 13.976H378.077V21.272H366.557V27.272H377.069V33.32H366.557V39.704H378.077V47H354.893V13.976ZM401.2 13.976H410.848L424 31.784V13.976H432.592V47H422.992L409.744 29.816V47H401.2V13.976Z" fill="#2196F3"/>
<path d="M8.08 47.48L8.04229 48.4793L8.08 47.48ZM1.12 47.048H0.12V47.9748L1.04413 48.0451L1.12 47.048ZM1.12 13.976V12.976H0.12V13.976H1.12ZM23.92 14.984L23.5796 15.9243L23.5892 15.9278L23.599 15.9311L23.92 14.984ZM28.624 26.696L29.4159 27.3069L29.424 27.296L28.624 26.696ZM24.688 29.048L24.4413 28.0789L24.5328 30.0359L24.688 29.048ZM27.04 44.648L26.4832 43.8173L26.4789 43.8202L27.04 44.648ZM18.688 26.12L18.098 25.3126L18.0904 25.3182L18.0829 25.3238L18.688 26.12ZM11.824 20.36V19.36H10.824V20.36H11.824ZM11.824 27.032H10.824V28.032H11.824V27.032ZM19.456 39.08L20.0237 39.9032L20.0295 39.8992L19.456 39.08ZM19.6 33.368L18.9683 34.1432L18.9771 34.1504L18.9861 34.1574L19.6 33.368ZM11.776 32.312V31.312H10.776V32.312H11.776ZM11.776 39.896H10.776V40.8316L11.7095 40.8938L11.776 39.896ZM13.6 46.576C11.6265 46.576 9.79926 46.5442 8.11771 46.4807L8.04229 48.4793C9.75274 48.5438 11.6055 48.576 13.6 48.576V46.576ZM8.11771 46.4807C6.44039 46.4174 4.13495 46.2745 1.19587 46.0509L1.04413 48.0451C3.99305 48.2695 6.32761 48.4146 8.04229 48.4793L8.11771 46.4807ZM2.12 47.048V13.976H0.12V47.048H2.12ZM1.12 14.976H17.632V12.976H1.12V14.976ZM17.632 14.976C19.8727 14.976 21.8507 15.2983 23.5796 15.9243L24.2604 14.0437C22.2773 13.3257 20.0633 12.976 17.632 12.976V14.976ZM23.599 15.9311C25.3587 16.5276 26.6659 17.37 27.581 18.4237L29.091 17.1123C27.8941 15.734 26.2574 14.7204 24.241 14.0369L23.599 15.9311ZM27.581 18.4237C28.4801 19.4591 28.92 20.6347 28.92 21.992H30.92C30.92 20.1493 30.3039 18.5089 29.091 17.1123L27.581 18.4237ZM28.92 21.992C28.92 23.8399 28.5171 25.1718 27.824 26.096L29.424 27.296C30.4589 25.9162 30.92 24.1121 30.92 21.992H28.92ZM27.8322 26.0852C27.1394 26.9833 26.0469 27.6702 24.4413 28.0789L24.9347 30.0171C26.8491 29.5298 28.3806 28.6487 29.4158 27.3068L27.8322 26.0852ZM24.5328 30.0359C26.6106 30.3624 28.0433 31.1161 28.9655 32.203C29.8887 33.2911 30.408 34.8398 30.408 36.968H32.408C32.408 34.5202 31.8073 32.4609 30.4905 30.909C29.1727 29.3559 27.2454 28.4376 24.8432 28.0601L24.5328 30.0359ZM30.408 36.968C30.408 39.7628 29.153 42.0277 26.4832 43.8174L27.5968 45.4786C30.7511 43.3643 32.408 40.5092 32.408 36.968H30.408ZM26.4789 43.8202C23.8476 45.6037 19.6118 46.576 13.6 46.576V48.576C19.7482 48.576 24.4724 47.5963 27.6011 45.4758L26.4789 43.8202ZM15.616 28.032C17.0287 28.032 18.2806 27.6857 19.2931 26.9162L18.0829 25.3238C17.4954 25.7703 16.6993 26.032 15.616 26.032V28.032ZM19.278 26.9274C20.3456 26.1472 20.936 25.0735 20.936 23.768H18.936C18.936 24.3825 18.6944 24.8768 18.098 25.3126L19.278 26.9274ZM20.936 23.768C20.936 22.4142 20.506 21.239 19.5079 20.4337C18.5509 19.6616 17.2283 19.36 15.712 19.36V21.36C17.0117 21.36 17.8011 21.6264 18.2521 21.9903C18.662 22.321 18.936 22.8498 18.936 23.768H20.936ZM15.712 19.36H11.824V21.36H15.712V19.36ZM10.824 20.36V27.032H12.824V20.36H10.824ZM11.824 28.032H15.616V26.032H11.824V28.032ZM15.424 41.04C17.2813 41.04 18.8591 40.7064 20.0237 39.9032L18.8883 38.2568C18.1969 38.7336 17.0867 39.04 15.424 39.04V41.04ZM20.0295 39.8992C21.2601 39.0378 21.896 37.8023 21.896 36.296H19.896C19.896 37.1577 19.5719 37.7782 18.8825 38.2608L20.0295 39.8992ZM21.896 36.296C21.896 34.7663 21.3645 33.4735 20.2139 32.5786L18.9861 34.1574C19.5635 34.6065 19.896 35.2657 19.896 36.296H21.896ZM20.2317 32.5928C19.1258 31.6917 17.6362 31.312 15.904 31.312V33.312C17.3718 33.312 18.3462 33.6363 18.9683 34.1432L20.2317 32.5928ZM15.904 31.312H11.776V33.312H15.904V31.312ZM10.776 32.312V39.896H12.776V32.312H10.776ZM11.7095 40.8938C13.1627 40.9907 14.4023 41.04 15.424 41.04V39.04C14.4617 39.04 13.2693 38.9933 11.8425 38.8982L11.7095 40.8938ZM59.7138 13.976L60.6777 14.2422L60.7799 13.8722L60.6082 13.5288L59.7138 13.976ZM59.8098 5.672L58.9428 5.17351L58.9388 5.18068L59.8098 5.672ZM62.7858 2.744L63.2599 3.6245L63.2677 3.62021L62.7858 2.744ZM74.3058 5.816L73.4113 6.26321L73.4181 6.27676L73.4253 6.2901L74.3058 5.816ZM74.3058 14.024L73.4361 13.5304L73.2279 13.8972L73.3452 14.3022L74.3058 14.024ZM83.8578 47V48H85.1885L84.8183 46.7218L83.8578 47ZM72.5778 47L71.5966 47.1933L71.7555 48H72.5778V47ZM71.3298 40.664L72.3109 40.4707L72.152 39.664H71.3298V40.664ZM62.7858 40.664V39.664H61.9816L61.809 40.4494L62.7858 40.664ZM61.3938 47V48H62.1979L62.3705 47.2146L61.3938 47ZM50.5938 47L49.6298 46.7338L49.2802 48H50.5938V47ZM69.0738 12.296L68.3263 11.6316L68.3239 11.6344L69.0738 12.296ZM69.0258 7.64L68.2783 8.30436L68.2884 8.31564L68.2987 8.32662L69.0258 7.64ZM64.9458 12.248L65.6728 11.5614L65.6728 11.5614L64.9458 12.248ZM70.1778 34.76V35.76H71.4168L71.1552 34.5489L70.1778 34.76ZM67.0578 20.312L68.0352 20.1009L66.0823 20.0916L67.0578 20.312ZM63.7938 34.76L62.8183 34.5396L62.5426 35.76H63.7938V34.76ZM60.6082 13.5288C60.0347 12.3819 59.7538 11.2065 59.7538 9.992H57.7538C57.7538 11.5295 58.1128 13.0101 58.8193 14.4232L60.6082 13.5288ZM59.7538 9.992C59.7538 8.50787 60.0725 7.24156 60.6807 6.16332L58.9388 5.18068C58.139 6.59843 57.7538 8.21213 57.7538 9.992H59.7538ZM60.6767 6.17047C61.3239 5.04483 62.1828 4.20441 63.2599 3.62447L62.3117 1.86353C60.8927 2.62759 59.7676 3.73917 58.9428 5.17353L60.6767 6.17047ZM63.2677 3.62021C64.3893 3.00334 65.6455 2.688 67.0578 2.688V0.687997C65.334 0.687997 63.7422 1.07665 62.3038 1.86778L63.2677 3.62021ZM67.0578 2.688C68.6059 2.688 69.8962 3.02259 70.9658 3.65336L71.9817 1.93063C70.5553 1.08941 68.9016 0.687997 67.0578 0.687997V2.688ZM70.9658 3.65336C72.0499 4.29273 72.8587 5.15788 73.4113 6.26321L75.2002 5.36879C74.4728 3.91411 73.3936 2.76326 71.9817 1.93063L70.9658 3.65336ZM73.4253 6.2901C74.0124 7.38038 74.3138 8.60729 74.3138 9.992H76.3138C76.3138 8.30471 75.9431 6.74761 75.1862 5.3419L73.4253 6.2901ZM74.3138 9.992C74.3138 11.3415 74.0139 12.5122 73.4361 13.5304L75.1754 14.5176C75.9416 13.1678 76.3138 11.6505 76.3138 9.992H74.3138ZM73.3452 14.3022L82.8972 47.2782L84.8183 46.7218L75.2663 13.7458L73.3452 14.3022ZM83.8578 46H72.5778V48H83.8578V46ZM73.5589 46.8067L72.3109 40.4707L70.3486 40.8573L71.5966 47.1933L73.5589 46.8067ZM71.3298 39.664H62.7858V41.664H71.3298V39.664ZM61.809 40.4494L60.417 46.7854L62.3705 47.2146L63.7625 40.8786L61.809 40.4494ZM61.3938 46H50.5938V48H61.3938V46ZM51.5577 47.2662L60.6777 14.2422L58.7498 13.7098L49.6298 46.7338L51.5577 47.2662ZM67.0578 14.112C68.1487 14.112 69.1174 13.758 69.8236 12.9576L68.3239 11.6344C68.0701 11.922 67.6948 12.112 67.0578 12.112V14.112ZM69.8212 12.9604C70.5331 12.1594 70.8418 11.1344 70.8418 9.992H68.8418C68.8418 10.7696 68.6384 11.2806 68.3263 11.6316L69.8212 12.9604ZM70.8418 9.992C70.8418 8.81202 70.5134 7.75879 69.7528 6.95337L68.2987 8.32662C68.6261 8.67321 68.8418 9.18797 68.8418 9.992H70.8418ZM69.7732 6.97563C69.0472 6.15894 68.0729 5.776 66.9618 5.776V7.776C67.5786 7.776 67.9803 7.96905 68.2783 8.30436L69.7732 6.97563ZM66.9618 5.776C65.8506 5.776 64.8763 6.15894 64.1503 6.97563L65.6452 8.30436C65.9432 7.96905 66.3449 7.776 66.9618 7.776V5.776ZM64.1503 6.97563C63.4333 7.78234 63.1298 8.82738 63.1298 9.992H65.1298C65.1298 9.17262 65.3382 8.64966 65.6452 8.30436L64.1503 6.97563ZM63.1298 9.992C63.1298 11.1286 63.4698 12.1416 64.2187 12.9346L65.6728 11.5614C65.3338 11.2024 65.1298 10.7114 65.1298 9.992H63.1298ZM64.2187 12.9346C64.9699 13.7299 65.9463 14.112 67.0578 14.112V12.112C66.4412 12.112 66.0097 11.9181 65.6728 11.5614L64.2187 12.9346ZM71.1552 34.5489L68.0352 20.1009L66.0803 20.5231L69.2003 34.9711L71.1552 34.5489ZM66.0823 20.0916L62.8183 34.5396L64.7692 34.9804L68.0332 20.5324L66.0823 20.0916ZM63.7938 35.76H70.1778V33.76H63.7938V35.76ZM107.542 21.272H108.542V20.272H107.542V21.272ZM100.678 21.272H99.6776V22.272H100.678V21.272ZM100.678 13.976V12.976H99.6776V13.976H100.678ZM125.59 13.976H126.59V12.976H125.59V13.976ZM125.59 21.272V22.272H126.59V21.272H125.59ZM118.726 21.272V20.272H117.726V21.272H118.726ZM118.726 47V48H119.726V47H118.726ZM107.542 47H106.542V48H107.542V47ZM107.542 20.272H100.678V22.272H107.542V20.272ZM101.678 21.272V13.976H99.6776V21.272H101.678ZM100.678 14.976H125.59V12.976H100.678V14.976ZM124.59 13.976V21.272H126.59V13.976H124.59ZM125.59 20.272H118.726V22.272H125.59V20.272ZM117.726 21.272V47H119.726V21.272H117.726ZM118.726 46H107.542V48H118.726V46ZM108.542 47V21.272H106.542V47H108.542ZM146.669 45.272L145.717 44.965L145.461 45.7591L146.196 46.1533L146.669 45.272ZM149.069 37.832L149.407 36.8909L148.434 36.5415L148.117 37.525L149.069 37.832ZM160.973 39.128L161.42 40.0224L161.428 40.0182L161.437 40.0138L160.973 39.128ZM161.453 36.44L160.746 37.1471L160.762 37.1639L160.78 37.1799L161.453 36.44ZM159.341 35.288L159.707 34.3576L159.707 34.3576L159.341 35.288ZM154.589 33.752L154.305 34.7108L154.312 34.713L154.589 33.752ZM148.541 30.008L147.767 30.6413L147.773 30.6482L148.541 30.008ZM149.837 15.992L150.451 16.7814L150.452 16.7802L149.837 15.992ZM165.293 13.928L165.072 14.9034L165.08 14.9051L165.088 14.9067L165.293 13.928ZM170.573 15.8L171.514 16.1367L171.803 15.3292L171.049 14.9207L170.573 15.8ZM167.981 23.048L167.659 23.995L168.591 24.3111L168.922 23.3847L167.981 23.048ZM163.277 21.752L163.062 22.7287L163.076 22.7317L163.09 22.7343L163.277 21.752ZM157.277 24.536L156.75 25.3863L156.774 25.4007L156.798 25.4139L157.277 24.536ZM161.549 26.024L161.276 26.9861L161.283 26.9882L161.291 26.9902L161.549 26.024ZM169.181 30.152L168.449 30.8334L168.455 30.8397L169.181 30.152ZM168.317 44.936L168.951 45.7095L168.957 45.7042L168.317 44.936ZM158.093 46.768C153.7 46.768 150.065 45.9579 147.141 44.3907L146.196 46.1533C149.481 47.9141 153.461 48.768 158.093 48.768V46.768ZM147.62 45.579L150.02 38.139L148.117 37.525L145.717 44.965L147.62 45.579ZM148.731 38.7731C152.1 39.9833 155.161 40.608 157.901 40.608V38.608C155.457 38.608 152.63 38.0487 149.407 36.8909L148.731 38.7731ZM157.901 40.608C159.342 40.608 160.562 40.4512 161.42 40.0224L160.526 38.2336C160.103 38.4448 159.276 38.608 157.901 38.608V40.608ZM161.437 40.0138C161.888 39.7775 162.284 39.457 162.565 39.0287C162.85 38.5939 162.981 38.1032 162.981 37.592H160.981C160.981 37.7528 160.943 37.8541 160.893 37.9313C160.838 38.015 160.73 38.1265 160.509 38.2422L161.437 40.0138ZM162.981 37.592C162.981 36.8432 162.671 36.1964 162.125 35.7001L160.78 37.1799C160.938 37.3236 160.981 37.4448 160.981 37.592H162.981ZM162.16 35.7329C161.648 35.2212 160.768 34.7756 159.707 34.3576L158.974 36.2184C160.025 36.6324 160.553 36.9548 160.746 37.1471L162.16 35.7329ZM159.707 34.3576C158.606 33.9238 156.985 33.4013 154.865 32.791L154.312 34.713C156.416 35.3187 157.964 35.8202 158.974 36.2184L159.707 34.3576ZM154.873 32.7932C152.431 32.0698 150.599 30.9158 149.309 29.3678L147.773 30.6482C149.363 32.5562 151.562 33.8982 154.305 34.7108L154.873 32.7932ZM149.315 29.3748C148.021 27.7932 147.381 26.0009 147.381 23.96H145.381C145.381 26.4631 146.181 28.7027 147.767 30.6412L149.315 29.3748ZM147.381 23.96C147.381 20.6777 148.441 18.3443 150.451 16.7814L149.223 15.2026C146.624 17.2237 145.381 20.2023 145.381 23.96H147.381ZM150.452 16.7802C152.562 15.1325 155.459 14.256 159.245 14.256V12.256C155.159 12.256 151.783 13.2035 149.221 15.2038L150.452 16.7802ZM159.245 14.256C161.219 14.256 163.161 14.4719 165.072 14.9034L165.513 12.9526C163.456 12.4881 161.366 12.256 159.245 12.256V14.256ZM165.088 14.9067C166.992 15.306 168.658 15.9001 170.096 16.6793L171.049 14.9207C169.416 14.0359 167.562 13.382 165.498 12.9493L165.088 14.9067ZM169.631 15.4633L167.039 22.7113L168.922 23.3847L171.514 16.1367L169.631 15.4633ZM168.302 22.101C166.481 21.4833 164.867 21.0369 163.464 20.7697L163.09 22.7343C164.375 22.9791 165.896 23.3967 167.659 23.995L168.302 22.101ZM163.491 20.7753C162.114 20.473 160.762 20.32 159.437 20.32V22.32C160.607 22.32 161.815 22.455 163.062 22.7287L163.491 20.7753ZM159.437 20.32C158.323 20.32 157.33 20.4663 156.582 20.8741C156.193 21.0862 155.853 21.3791 155.613 21.7705C155.373 22.1643 155.269 22.6019 155.269 23.048H157.269C157.269 22.9181 157.297 22.8517 157.32 22.8134C157.345 22.7729 157.4 22.7058 157.54 22.6299C157.848 22.4617 158.439 22.32 159.437 22.32V20.32ZM155.269 23.048C155.269 24.0928 155.906 24.8634 156.75 25.3863L157.803 23.6857C157.304 23.3766 157.269 23.1552 157.269 23.048H155.269ZM156.798 25.4139C157.615 25.8594 159.144 26.3816 161.276 26.9861L161.822 25.0619C159.665 24.4504 158.347 23.9806 157.756 23.6581L156.798 25.4139ZM161.291 26.9902C164.534 27.8551 166.888 29.1572 168.449 30.8334L169.913 29.4706C168.017 27.4348 165.283 25.9849 161.806 25.0578L161.291 26.9902ZM168.455 30.8397C170.003 32.4741 170.773 34.4185 170.773 36.728H172.773C172.773 33.9175 171.814 31.4779 169.907 29.4643L168.455 30.8397ZM170.773 36.728C170.773 40.0438 169.71 42.4734 167.677 44.1678L168.957 45.7042C171.532 43.5586 172.773 40.5162 172.773 36.728H170.773ZM167.683 44.1625C165.629 45.8453 162.488 46.768 158.093 46.768V48.768C162.722 48.768 166.396 47.8027 168.951 45.7095L167.683 44.1625ZM194.035 13.976V12.976H193.035V13.976H194.035ZM204.835 13.976H205.835V12.976H204.835V13.976ZM204.835 27.128H203.835V28.128H204.835V27.128ZM215.059 27.128V28.128H216.059V27.128H215.059ZM215.059 13.976V12.976H214.059V13.976H215.059ZM225.907 13.976H226.907V12.976H225.907V13.976ZM225.907 47V48H226.907V47H225.907ZM215.059 47H214.059V48H215.059V47ZM215.059 34.04H216.059V33.04H215.059V34.04ZM204.835 34.04V33.04H203.835V34.04H204.835ZM204.835 47V48H205.835V47H204.835ZM194.035 47H193.035V48H194.035V47ZM194.035 14.976H204.835V12.976H194.035V14.976ZM203.835 13.976V27.128H205.835V13.976H203.835ZM204.835 28.128H215.059V26.128H204.835V28.128ZM216.059 27.128V13.976H214.059V27.128H216.059ZM215.059 14.976H225.907V12.976H215.059V14.976ZM224.907 13.976V47H226.907V13.976H224.907ZM225.907 46H215.059V48H225.907V46ZM216.059 47V34.04H214.059V47H216.059ZM215.059 33.04H204.835V35.04H215.059V33.04ZM203.835 34.04V47H205.835V34.04H203.835ZM204.835 46H194.035V48H204.835V46ZM195.035 47V13.976H193.035V47H195.035ZM256.72 45.56L256.236 46.4347L256.24 46.4371L256.72 45.56ZM250.48 39.464L249.608 39.9533L249.612 39.9596L249.615 39.9659L250.48 39.464ZM250.48 21.56L249.613 21.0627L249.608 21.0707L250.48 21.56ZM256.72 15.464L257.197 16.3431L257.201 16.3411L256.72 15.464ZM275.104 15.464L274.62 16.3387L274.626 16.3421L274.632 16.3455L275.104 15.464ZM281.344 21.56L280.472 22.0492L280.476 22.0556L280.479 22.0619L281.344 21.56ZM281.344 39.464L280.477 38.9667L280.475 38.9702L281.344 39.464ZM275.104 45.56L275.585 46.4371L275.104 45.56ZM270.88 36.68L270.113 36.0382L270.106 36.0476L270.88 36.68ZM271.936 25.976L271.017 26.3699L271.023 26.3833L271.029 26.3965L271.936 25.976ZM269.488 22.856L268.9 23.6647L268.908 23.6706L268.917 23.6764L269.488 22.856ZM262.336 22.856L262.908 23.6764L262.916 23.6706L262.925 23.6647L262.336 22.856ZM259.888 25.976L260.804 26.378L260.808 26.3699L259.888 25.976ZM265.936 46.768C262.626 46.768 259.723 46.0644 257.201 44.6829L256.24 46.4371C259.093 47.9996 262.334 48.768 265.936 48.768V46.768ZM257.205 44.6853C254.705 43.2997 252.757 41.3956 251.345 38.9621L249.615 39.9659C251.211 42.7164 253.424 44.8763 256.236 46.4347L257.205 44.6853ZM251.353 38.9747C249.973 36.5156 249.272 33.7113 249.272 30.536H247.272C247.272 34.0167 248.044 37.1644 249.608 39.9533L251.353 38.9747ZM249.272 30.536C249.272 27.3269 249.974 24.507 251.353 22.0492L249.608 21.0707C248.043 23.861 247.272 27.0251 247.272 30.536H249.272ZM251.348 22.0573C252.76 19.5942 254.704 17.6945 257.197 16.3431L256.244 14.5849C253.424 16.1135 251.209 18.2778 249.613 21.0627L251.348 22.0573ZM257.201 16.3411C259.723 14.9596 262.626 14.256 265.936 14.256V12.256C262.334 12.256 259.093 13.0244 256.24 14.5869L257.201 16.3411ZM265.936 14.256C269.247 14.256 272.131 14.9597 274.62 16.3387L275.589 14.5893C272.765 13.0243 269.538 12.256 265.936 12.256V14.256ZM274.632 16.3455C277.155 17.6968 279.095 19.5938 280.472 22.0492L282.217 21.0707C280.65 18.2782 278.43 16.1112 275.577 14.5825L274.632 16.3455ZM280.479 22.0619C281.884 24.4821 282.6 27.2966 282.6 30.536H284.6C284.6 26.9914 283.813 23.8219 282.209 21.0581L280.479 22.0619ZM282.6 30.536C282.6 33.7075 281.886 36.509 280.477 38.9667L282.212 39.9613C283.811 37.171 284.6 34.0205 284.6 30.536H282.6ZM280.475 38.9702C279.097 41.3961 277.154 43.2974 274.624 44.6829L275.585 46.4371C278.431 44.8786 280.648 42.7159 282.214 39.9578L280.475 38.9702ZM274.624 44.6829C272.1 46.0652 269.213 46.768 265.936 46.768V48.768C269.508 48.768 272.733 47.9988 275.585 46.4371L274.624 44.6829ZM265.936 40.032C268.254 40.032 270.186 39.1119 271.655 37.3124L270.106 36.0476C269.015 37.3841 267.651 38.032 265.936 38.032V40.032ZM271.647 37.3217C273.145 35.5321 273.848 33.2218 273.848 30.488H271.848C271.848 32.8742 271.24 34.6919 270.113 36.0383L271.647 37.3217ZM273.848 30.488C273.848 28.6717 273.522 27.0202 272.844 25.5555L271.029 26.3965C271.566 27.5558 271.848 28.9123 271.848 30.488H273.848ZM272.856 25.5821C272.216 24.0902 271.29 22.8925 270.06 22.0356L268.917 23.6764C269.799 24.2915 270.505 25.1738 271.017 26.3699L272.856 25.5821ZM270.077 22.0473C268.844 21.1511 267.437 20.704 265.888 20.704V22.704C267.028 22.704 268.02 23.0249 268.9 23.6647L270.077 22.0473ZM265.888 20.704C264.366 20.704 262.976 21.1543 261.748 22.0473L262.925 23.6647C263.809 23.0217 264.787 22.704 265.888 22.704V20.704ZM261.765 22.0356C260.535 22.8925 259.609 24.0902 258.969 25.5821L260.808 26.3699C261.32 25.1738 262.026 24.2915 262.908 23.6764L261.765 22.0356ZM258.973 25.574C258.332 27.0338 258.024 28.6787 258.024 30.488H260.024C260.024 28.9053 260.293 27.5422 260.804 26.378L258.973 25.574ZM258.024 30.488C258.024 33.2161 258.709 35.5229 260.17 37.3124L261.719 36.0476C260.62 34.7011 260.024 32.8799 260.024 30.488H258.024ZM260.17 37.3124C261.642 39.1162 263.592 40.032 265.936 40.032V38.032C264.185 38.032 262.807 37.3798 261.719 36.0476L260.17 37.3124ZM305.961 13.976V12.976H304.961V13.976H305.961ZM329.289 16.856L328.708 17.6697L328.713 17.673L329.289 16.856ZM331.353 30.632L330.581 29.9962L330.574 30.0054L331.353 30.632ZM325.929 34.424L326.285 35.3587L326.292 35.356L325.929 34.424ZM316.329 35.72V34.72H315.329V35.72H316.329ZM316.329 47V48H317.329V47H316.329ZM305.961 47H304.961V48H305.961V47ZM322.329 27.992L321.725 27.1953L321.725 27.1953L322.329 27.992ZM322.329 21.896L321.729 22.696L321.736 22.701L321.743 22.7059L322.329 21.896ZM316.329 20.888V19.888H315.329V20.888H316.329ZM316.329 28.952H315.329V29.857L316.23 29.947L316.329 28.952ZM305.961 14.976H317.865V12.976H305.961V14.976ZM317.865 14.976C322.682 14.976 326.254 15.9172 328.708 17.6697L329.87 16.0423C326.948 13.9548 322.905 12.976 317.865 12.976V14.976ZM328.713 17.673C331.155 19.3973 332.369 21.7743 332.369 24.92H334.369C334.369 21.1537 332.863 18.1547 329.866 16.039L328.713 17.673ZM332.369 24.92C332.369 26.8714 331.773 28.5489 330.581 29.9963L332.125 31.2677C333.621 29.4511 334.369 27.3206 334.369 24.92H332.369ZM330.574 30.0054C329.39 31.478 327.737 32.648 325.567 33.492L326.292 35.356C328.729 34.408 330.692 33.05 332.133 31.2586L330.574 30.0054ZM325.574 33.4893C323.431 34.3043 321.025 34.72 318.345 34.72V36.72C321.233 36.72 323.884 36.2717 326.285 35.3587L325.574 33.4893ZM318.345 34.72H316.329V36.72H318.345V34.72ZM315.329 35.72V47H317.329V35.72H315.329ZM316.329 46H305.961V48H316.329V46ZM306.961 47V13.976H304.961V47H306.961ZM318.393 30.048C320.212 30.048 321.768 29.6727 322.934 28.7887L321.725 27.1953C321.034 27.7193 319.967 28.048 318.393 28.048V30.048ZM322.934 28.7887C324.151 27.8649 324.721 26.5222 324.721 24.92H322.721C322.721 26.0058 322.363 26.7111 321.725 27.1953L322.934 28.7887ZM324.721 24.92C324.721 23.3186 324.151 21.9804 322.916 21.0861L321.743 22.7059C322.364 23.1556 322.721 23.8334 322.721 24.92H324.721ZM322.929 21.096C321.789 20.2407 320.227 19.888 318.393 19.888V21.888C320.015 21.888 321.078 22.2073 321.729 22.696L322.929 21.096ZM318.393 19.888H316.329V21.888H318.393V19.888ZM315.329 20.888V28.952H317.329V20.888H315.329ZM316.23 29.947C316.907 30.0148 317.629 30.048 318.393 30.048V28.048C317.686 28.048 317.031 28.0172 316.429 27.957L316.23 29.947ZM354.893 13.976V12.976H353.893V13.976H354.893ZM378.077 13.976H379.077V12.976H378.077V13.976ZM378.077 21.272V22.272H379.077V21.272H378.077ZM366.557 21.272V20.272H365.557V21.272H366.557ZM366.557 27.272H365.557V28.272H366.557V27.272ZM377.069 27.272H378.069V26.272H377.069V27.272ZM377.069 33.32V34.32H378.069V33.32H377.069ZM366.557 33.32V32.32H365.557V33.32H366.557ZM366.557 39.704H365.557V40.704H366.557V39.704ZM378.077 39.704H379.077V38.704H378.077V39.704ZM378.077 47V48H379.077V47H378.077ZM354.893 47H353.893V48H354.893V47ZM354.893 14.976H378.077V12.976H354.893V14.976ZM377.077 13.976V21.272H379.077V13.976H377.077ZM378.077 20.272H366.557V22.272H378.077V20.272ZM365.557 21.272V27.272H367.557V21.272H365.557ZM366.557 28.272H377.069V26.272H366.557V28.272ZM376.069 27.272V33.32H378.069V27.272H376.069ZM377.069 32.32H366.557V34.32H377.069V32.32ZM365.557 33.32V39.704H367.557V33.32H365.557ZM366.557 40.704H378.077V38.704H366.557V40.704ZM377.077 39.704V47H379.077V39.704H377.077ZM378.077 46H354.893V48H378.077V46ZM355.893 47V13.976H353.893V47H355.893ZM401.2 13.976V12.976H400.2V13.976H401.2ZM410.848 13.976L411.652 13.3819L411.353 12.976H410.848V13.976ZM424 31.784L423.196 32.3781L425 34.8213V31.784H424ZM424 13.976V12.976H423V13.976H424ZM432.592 13.976H433.592V12.976H432.592V13.976ZM432.592 47V48H433.592V47H432.592ZM422.992 47L422.2 47.6106L422.5 48H422.992V47ZM409.744 29.816L410.536 29.2054L408.744 26.8811V29.816H409.744ZM409.744 47V48H410.744V47H409.744ZM401.2 47H400.2V48H401.2V47ZM401.2 14.976H410.848V12.976H401.2V14.976ZM410.044 14.5701L423.196 32.3781L424.804 31.1899L411.652 13.3819L410.044 14.5701ZM425 31.784V13.976H423V31.784H425ZM424 14.976H432.592V12.976H424V14.976ZM431.592 13.976V47H433.592V13.976H431.592ZM432.592 46H422.992V48H432.592V46ZM423.784 46.3894L410.536 29.2054L408.952 30.4266L422.2 47.6106L423.784 46.3894ZM408.744 29.816V47H410.744V29.816H408.744ZM409.744 46H401.2V48H409.744V46ZM402.2 47V13.976H400.2V47H402.2Z" fill="#9F9F9F"/>
</svg>
